<svg xmlns="http://www.w3.org/2000/svg" width="400" height="473"><path d="M71 21l1 6 1 9c0 4 1 5 2 5 2 0 2 0 2-3l-2-11c-1-6-2-7-4-6m31 7c-3 7-4 11-1 10 2 0 5-11 5-15l-4 5m111-4c-2 2-2 4-2 30v52l-1 40-4 6c-3 7-3 7-1 9 2 1 2 3 1 7-1 6 1 11 4 7 1-2 2-2 7 3 3 3 7 5 9 5s5 1 6 3c2 2 3 2 7-3l8-9 3-4v5c0 3-1 4-3 5-3 0-4 0-3 14v14l-4 1c-3 0-4 0-4-2 1-8 0-11-4-11-3 1-4 1-1 4v1l-3-1h-2v1c3 0 2 6-2 13l-4 8-4-1c-5-2-5-5 0-8 3-2 8-10 6-10l-4 3c-2 2-3 3-4 1-2-3-1-4 5-7l6-4c0-2-2-2-6 1-5 3-6 2-5-7l-1-9c-2 1-3 7-3 15 0 6-1 7-6 10l-5 4-5-9c-8-14-9-17-10-33l-1-14-6-7c-4-4-6-7-6-10s-1-5-2-5l-3-2-4-2c-2 0 1 13 3 15l2 4c0 2 0 2-4-1-5-4-6-3-5 4 0 5 0 12-2 21-3 14-3 23-1 22l1-6c0-4 0-5 3-6 2-1 4-3 4-5 8-33 9-32 9 1 0 22 0 26-1 22-2-5-5-9-5-6 0 4 8 20 13 24 3 4 4 6 5 13 1 5 2 10 4 13l4 6-3 11c-3 15-3 16 4 16 6-1 6 3 1 16l-3 9 4 8c4 9 7 30 6 48l1 13 2 16 2 23c1 10 1 10-2 10-2 0-3 1-4 3-1 4-7-3-10-10-1-6-8-8-8-3-1 2-9 6-13 6l1-19c1-1 2-1 5 1s5 2 6 1c2-2 0-5-5-7s-5-3-5-7c1-5 0-5-2-6-5 0-4-3 1-11 4-7 6-14 3-15-1 0-4 4-8 12-3 7-7 13-8 13-2 0-2 1-2 2 3 6-3 0-9-8-7-9-11-12-11-8l8 12 7 10-2 4-7 7c-3 5-4 6-1 8l6-6c7-7 7-7 6 5-1 5-1 8-2 7-2-3-5-2-6 4-2 9-27 8-28-2-1-4-6-5-7-1s-3 4-16-1c-23-7-32-4-58 19-10 9-4 9 7 1 9-7 13-9 6-3l-4 6c0 3 3 2 7-2 3-3 4-3 7-2 2 2 3 2 4 0 3-2 6-2 6 1l2 4c3 2 1 5-3 4-1 0-2 0-2 2l-8 1h-9c-1 1 3 1 8 2a6930 6930 0 0 1 40 0c-4 0-8-3-7-5 1-1 1-1 0 0l-2 3c0 1-1 2-2 1l-1-2-1-1-2 1-3 1h-2v2l-2-2c-1-4-1-4 1-4s2-1 2-2c-1-4 10-12 15-12 4 0 4 1 1 7s-1 9 4 6c3-1 4-1 5 1 3 3 15-2 15-7l2-2c2 0 2 0 1 3-2 6 3 7 8 2 4-4 15-7 15-5s-1 4-5 7c-5 3-5 6-2 7 2 1 10-4 10-7l6-5c5-4 8-5 6-2-7 6 0 8 8 3 11-10 14-9 4 1-9 9-7 14 3 8 16-9 18-10 15-4-6 10-2 12 12 9 6-1 17-2 36-2 22 0 27 0 25-1l-6-2c-6 0-3-6 10-17 12-10 14-11 5-1l-7 9c0 4 6 2 10-3 5-5 6-6 6-3 0 4 4 4 8 0l9-9 6-6-4 7c-5 8-7 13-3 14 1 1 3 0 4-2 6-9 24-25 26-23v1c-5 4-16 14-16 16 0 4 3 3 13-4l11-6-3 3c-8 6-4 12 5 7 6-2 6-2 11 0 3 2 5 2 12 1 9-1 12-4 4-5-4 0-5-1-5-3s0-3 2-2c5 1 8-2 7-5l1-6c3-5-2-7-6-4-2 2-2 2-6-1-5-5-14-6-15-3-1 2-3 2-8-1l-12-3c-5-1-7-1-5-3 1-1 0-3-1-8-1-7 0-13 6-23 3-4 3-7 3-18 1-15 2-20 8-24 3-2 0-19-3-18-8 2-19 2-20 1-3-2-1-6 2-6 1 0 6-2 9-6l7-6-2-4-3-7c0-2-2-3-5-1-2 2-2-1 0-5l3-9c2-9 5-17 7-16l4 1c3 1 3 8 1 8s-11 14-11 16c0 4 4 3 7-2 4-6 4-6 4 1-1 6 2 7 5 1 4-10 6-7 6 13 0 17 0 18 3 18 2 0 2 1 3 6 1 7 3 10 5 8v-6l-1-9v-5l4 3c6 4 7 3 4-2-6-7-8-22-5-42 4-28 0-43-9-35-1 1-3 2-4 1-1 0-3 1-5 5-4 8-5 8-7 0-1-9-5-11-9-6s-12 1-12-5c0-7-3-7-11-3l-8 5v-11c0-12-2-16-5-7-1 6-3 8-9 7s-8 4-3 9c1 2 2 3 0 8-2 7-3 8-9 4-6-3-6-6 0-8 3 0 4-1 3-4-4-14 0-20 9-16 2 1 2 0 3-4v-10l-2-4c0-4 1-4 4 0 5 5 16 5 20-1l10-12c5-6 6-15 4-36-3-18-23-34-26-21-1 2-2 3-5 3-4 1-11 14-12 25-1 12-2 13-3 0-1-12-1-12 3-15 4-4 4-7 0-7l-1-4c1-6-3-6-10-1-5 4-7 2-7-6 0-3-1-6-3-7-2-3-2-3 0-5 2-1 2-2 1-3-2-3-1-4 4-6s11-7 9-9l-6 2-6 3c0-1 2-3 6-5l7-6c1-4-2-4-8 1-5 3-8 5-12 5-5 0-6 0-8 4-2 3-4 6-8 7-8 4-7 7 1 6 7-1 7-1 5 8-1 5 1 10 2 7l2-2 1 1v9c1 8 4 8 3 0l1-10 1-5 3 4c4 7 4 15-1 21-7 8-7 11 0 10l6-1-2 4-2 8-2 8-5 3c-7 2-7 5-2 7 4 3 4 5-2 14l-11-1c-12-2-15-5-10-10a437 437 0 0 1-3-107c2-29 1-34-2-29m-98 8c-2 3-3 7-1 7s5-6 4-8c0-2-1-2-3 1m19 4c-6 7-11 14-11 16 0 4 3 1 6-4l8-10c5-6 3-8-3-2m-32 17l6 5c11 6 12 8 11 19-1 12-3 13-18 12-23-1-28-10-12-27 8-9 7-10-2-2-16 15-14 29 6 32 10 2 24 0 28-2 2-2 3-20 0-26-2-5-19-16-19-11m31 4c-2 3 0 5 3 5 5-1 6-5 2-5h-5m-82 5c1 3 12 14 13 14 4 0 2-4-5-10-6-5-9-7-8-4m87 21c0 4 5 9 6 6s-2-8-4-8l-2 2m-17 25l-1 10c0 9 3 7 4-3 0-7-1-11-3-7m-30 11l-2 5c1 1 8-6 8-8 0-3-3-1-6 3m-27-2c-2 2-8 10-7 11s5-2 8-7c2-3 2-6-1-4m209 38l1 8-1 5-3-6c-3-6-2-10 0-10l3 3m0 27l-1 4c-1 0-2-1-2-4s1-4 2-3l1 3m-64 28c1 1-1 3-2 5l-3 3-2-3c0-2 0-4 2-6 2-3 5-2 5 1m82 9c0 2 1 3 3 4 3 1 3 2-3 2s-6 0-5-5c1-4 5-5 5-1m61 3c0 3-1 3-2 1v-6l2 5m-41-3c1 1-1 4-2 4l-1-2c0-3 1-4 3-2m10 12c-6 13-6 13-9 10-2-2-2-3 6-16 7-11 9-7 3 6m-238-7c-6 9-5 16 2 14 3-1 3 0 3 2l2 4c1 1 1 2-1 3-7 5-8 7-7 9 2 3 1 4-3 8-8 6-8 15-2 21s6 7-1 6c-12-1-30 15-30 26 0 13 4 15 12 6l5-5v6l-1 6c-4 3-1 10 6 15 3 2 5 4 4 5v3c8 4 12 43 5 47-2 2 0 4 5 5l4 1-1-21c0-19-1-23-3-28l-3-5c17 4 18 6 20 37 1 18 1 19 3 19 3 0 3 0 2-8a465 465 0 0 1-3-41c-2-3 8-17 11-17l-2 25c-2 7-2 33 1 37 3 7 4 3 3-13l1-23c2-3 3-12 3-19l2-16c2-2 2-11 0-13-1-1 0-2 3-3 2-1 4-2 4-4-1-2-4-2-9-1-2 1-2 1-2-1 1-3 1-5-6-9-7-5-8-5-15-1-7 3-14 2-17-2-1-3-1-3 1-2 6 3 8 2 8 0 1-2 3-3 8-4l14-3c6-3 7-2 7 3 0 2-1 2-2 1-3-3-4-1-2 3 6 11 24 17 33 10 7-5 7-4 5 6v15a694 694 0 0 1 3 7c0 2 3 2 3 0l5-13c3-7 5-12 4-16l1-8c4-14 6-21 6-26 0-12-7 3-9 18-1 13-4 11-4-4l-2-14c-2-4-4 1-4 13 1 10 0 14-2 10l-4 3c-11 10-22 9-26-4l-3-7c-1-1 0-3 4-7 9-9 3-23-14-33-4-2-6-4-6-6l-2-5c-1-1-1-2 1-4 4-4 3-9-1-8l-4-1c-5-4-11-4-13 1m177-1c-1 4-4 8-6 7-1-1 4-11 6-11v4m22 5c4 4 4 7 0 4-2-2-2-2-4 1-5 6-6 8-7 7l7-15 4 3m49 2l-1 1c-1 1-2 0-2-1 0-2 1-2 2-2l1 2m-27 1c2 1 1 9-2 19-6 19-5 27 3 25 5-1 6 1 3 6-3 7-7 10-8 6l-4-5c-2-2-2-6-3-28l-1-25 5 1 7 1m-78 14c-1 15 0 17 3 17 5-1 11 6 12 14 1 4 1 5-1 5l-1-2c0-3-1-3-5-3-5 1-6 0-7-4l-2-6-2-7c0-6-1-6-5-3-2 3-4 3-4 0 0-1-1-3-3-3l-3-1 3-3c2-2 2-3 1-5-2-2-2-5-2-8l1-4 8 2 7 3v8m124-4l-1-2 1-3v5m-93 10c-1 10-1 14-3 18-2 2-3 6-3 8 0 3 0 3-2 2l-2-19v-17l4-3 6-3v14m53 6l-2 8c0 3-3 5-4 3 0-1 0-5 4-18l1-5 2 3c2 4 2 5-1 9m38-5v3l-3 1c-5-2-3-6 2-6 1 0 2 0 1 2m-235 3c2 3 2 4-1 4h-2v-3c-1-3 0-3 3-1m221 16c-2 6-1 10 1 9s6-11 5-13c-2-4-3-2-6 4m-140-1l-1 2-1-2 1-2 1 2m91 6c0 5 1 7 5 13l4 6-3 8c-5 10-5 12-1 16 3 3 3 4-1 12-3 6-7 16-19 52-3 9-4 10-10 12-6 4-12 14-9 17 1 1-3 4-10 9-16 10-16 10-15-20 0-18 0-26-2-32-2-8-2-8 0-11 2-2 3-5 3-19l2-30v-16c-1-3-1-4 2-5 6-2 12-1 12 1l1 11 1 9h-5l-5 1 6 3c8 6 10 6 10-4 0-8 0-8 3-7 3 3 6 1 7-4l2-8c1-3 0-3-2-3-8 1-11-3-3-5 4-1 15-8 18-11 5-5 9-3 9 5m-75 33c0 16 0 25 2 31l3 19 2 34c3 28 2 39-2 39-2 0-2-1-1-3v-6c-2-4-4-32-7-77-1-11-2-24-4-29-1-8-2-11 0-16l1-14v-8l3 3c3 3 3 5 3 27m42-14l-1 3-1-3 1-3 1 3m54 10l7 3c5 0 7 5 4 19l-1 16c1 5 1 7-2 11l-5 12c-3 8-8 16-18 25-4 4-17 10-19 8-3-2 24-73 27-73 4 0 3-6-1-9-5-2-5-4-3-11 2-5 5-5 11-1m-201 0c0 3-8 6-11 4-2-2-1-2 1-4 4-2 10-2 10 0m-29 5c0 3-2 5-4 4-1-1 1-6 3-6l1 2m143 21l-1 3-1-4c0-2 0-3 1-2l1 3m138 11l-3 5c0 3-4 7-6 8-3 0-7 3-7 4h4c3-1 4 0 4 2 0 5-14 5-16 0-2-4-5-4-5 0 0 1-1 2-4 2-4 1-5 2-3 4 5 2 56 1 56-2l-11-1-12-1c-1-1 3-13 6-16 3-2 4-6 2-7l-5 2m-15 0c0 3 7 11 7 9 0-3-4-10-6-10l-1 1m-101 11c0 3 3 5 4 4s-1-7-2-7l-2 3m11 3l-7 7c-3 6-12 9-12 5l-1-1c-3 0-2 3 1 6l3 1 1 6c1 6 1 6-3 6-8 0-2 3 9 4l10 1 1-6c0-6 2-10 4-10 9 1 11-2 3-3l-9-5c-3-3-2-6 1-3s5 1 2-2c-2-2-2-3 0-6 4-4 1-4-3 0m-218 5l3 4c5 6 2 12-6 14l-6 2 3 1 24-1c19-1 25-2 19-3H56l-13-1 1-2c2 0 2-5 0-6l-5-5c-2-4-5-5-5-3m205 0l2 2 2-2-2-1-2 1M48 371c0 3 3 5 4 4s0-2-1-4c-3-2-3-2-3 0m75 3c-2 1 0 1 6 1l8-1c0-2-10-2-14 0m56 6c1 2 17 6 21 6 6 0 1-3-8-5-11-2-15-2-13-1m69 4l-1 3-1-4c1-3 2-3 2 1m-83 5l-1 14v11c3 3 1 4-6 4-7-1-12-4-5-4 3 0 3-2 5-18 1-11 2-13 5-13 2 0 3 1 2 6m160 8c4 1 4 3-1 3-5 1-8 0-8-2s4-3 9-1m15 7c0 1 0 2-2 2-3 2-5 1-3-1 2-3 4-3 5-1m11 6c1 1-1 2-6 4l-5 1 3-3c4-4 7-5 8-2m-266 2c3 1 3 1 2 3l-1 3c0 2-1 3-3 5-4 3-5 2-2-1 7-8-4-10-17-4-12 5-13 4-2-2 8-5 15-6 23-4m16 8c-2 2-11 0-11-4 0-2 1-2 6 0s6 3 5 4m-24-2c0 2-2 5-4 5s-3-4-1-5c3-2 5-2 5 0m116 6c13 14 23 16 40 9 7-2 15-2 13 1l-1 4c-1 2-2 2-6 1h-7a2751 2751 0 0 1-38 2c-4 2-5 0-1-5l3-5-10-7-5 6v-4c2-3 2-5 1-6-2-2-2-3 1-3l10 7m69-5c-4 3-8 5-8 3l9-5c1 0 1 1-1 2m-145 2c3 1 3 2 1 3-3 2-7 1-8-2s-1-3 7-1m-9 5l-9 4c0-3 3-5 6-5 2 0 4 0 3 1m232 1c-2 2-1 5 2 7 4 3 7 0 4-4-2-4-4-5-6-3m-16 3a2 2 0 0 0 2 2c2 0 2-1 2-2-1-2-4-3-4 0m-10 2l2 2 1-2-1-3c-1 0-2 1-2 3m41-2l-4 6c-2 6-7 7-8 3s-8-4-8 0l3 4c2 1 2 3 2 3l-4-1c-3-2-8 1-7 4 1 1-1 2-6 2-8 1-9 3-2 6 5 2 6 2 9 1 2-1 3-1 5 1 3 2 3 2 6-1s3-3 18-2c14 1 16 0 16-1s-1-3-3-3l-2-3 2-3c2 0 3-2 3-3 0-2-1-3-2-2-1 0-2 0-2-2l-2-3c-3-1-8 5-8 8 0 4-4 3-5-1 0-3 0-4 3-7 6-4 2-10-4-6m-78 4c-2 2-3 3-5 2-1-2-2-1-2 1s7 6 8 4c7-10 6-15-1-7m-225 2c-3 2-1 4 1 2l3-1 2-2c0-3-4-2-6 1m97-1c0 3 2 5 4 4s2-4-1-5c-1-1-2 0-3 1m138 1c-2 4-2 5 1 5 2 0 3-1 3-4 0-4-2-5-4-1m12-1c0 2 3 4 4 3s-1-5-2-5l-2 2m22 1v4c1 1-1 3-2 5-4 4-3 5 3 4l5-3 2-4c1-2 1-3-2-5-4-3-5-3-6-1m-215 6l-1 3c1 0 2 0 3-2l1-2-3 1m15-1v4c1 4 4 4 4-1 0-3-2-5-4-3m-11 2c-1 2-1 3 1 3l3-3-1-2-3 2m33 0c-2 3-2 5 0 5 1 0 3-1 3-3l2-2c3-1 2-1-1-1-2-1-4 0-4 1m10-1c-1 3-1 7 1 7 1-1 2-2 1-4l3-3c4 0 4 0 0 0h-5m155 3l-5 4v2c2 3 12-2 11-5 0-3-3-3-6-1m46 4c1 1 0 2-2 2-7 0-10-3-4-4 4-1 6-1 6 2" fill-rule="evenodd"/></svg>