<?xml version="1.0" standalone="no"?>
<!DOCTYPE svg PUBLIC "-//W3C//DTD SVG 20010904//EN"
 "http://www.w3.org/TR/2001/REC-SVG-20010904/DTD/svg10.dtd">
<svg version="1.0" xmlns="http://www.w3.org/2000/svg"
 width="260.000000pt" height="260.000000pt" viewBox="0 0 260.000000 260.000000"
 preserveAspectRatio="xMidYMid meet">
<metadata>
Created by potrace 1.11, written by Peter Selinger 2001-2013
</metadata>
<g transform="translate(0.000000,260.000000) scale(0.100000,-0.100000)"
fill="#000000" stroke="none">
<path d="M1643 2430 c-23 -10 -100 -85 -144 -141 -120 -153 -110 -326 28 -479
26 -29 81 -78 120 -107 43 -32 75 -63 79 -77 16 -66 -44 -227 -101 -271 -46
-34 -62 -67 -76 -155 -14 -81 -7 -93 42 -83 23 4 28 1 31 -18 2 -17 12 -25 33
-30 17 -3 50 -18 75 -33 68 -39 88 -35 177 37 84 67 127 130 139 202 3 22 13
52 20 67 20 38 17 115 -6 165 -26 57 -162 198 -279 286 -73 56 -95 78 -94 94
1 12 27 61 56 110 54 88 97 129 148 140 14 3 39 15 54 27 23 19 27 27 21 51
-11 45 -134 160 -207 195 -68 32 -81 34 -116 20z"/>
<path d="M658 2154 c-15 -8 -38 -33 -52 -57 -30 -53 -112 -278 -130 -360 -8
-34 -28 -115 -45 -181 -44 -167 -47 -259 -22 -589 22 -288 43 -418 86 -553 43
-132 126 -231 203 -241 31 -4 42 0 64 21 14 15 29 43 33 63 4 21 6 154 6 298
0 242 13 415 45 573 4 21 9 22 84 22 95 0 169 15 230 45 56 29 91 65 124 132
14 29 44 80 65 113 52 80 75 150 76 230 0 101 -20 156 -82 218 -79 80 -113 92
-263 92 l-125 0 -67 74 c-95 104 -166 135 -230 100z m538 -369 c12 -31 -9 -70
-69 -129 -55 -55 -155 -116 -188 -116 -9 0 -10 19 -5 75 11 123 16 132 99 156
40 11 77 22 82 24 28 10 76 4 81 -10z"/>
</g>
</svg>
