<svg version="1" xmlns="http://www.w3.org/2000/svg" width="1578.667" height="1578.667" viewBox="0 0 1184.000000 1184.000000"><path d="M559.3 1.5C517.2 4.8 479 11.5 441.5 22c-84.4 23.7-148.4 66.9-187.6 126.7-38.4 58.5-51.4 140.5-33.4 210 18.2 70 67 126.1 142.5 163.8 31.1 15.6 62.9 26.5 135 46.4 66.4 18.3 87.1 24.6 113.5 34.6 49.8 18.9 75.9 37.2 88.9 62.6 5.4 10.5 7.1 19.6 6.3 32.4-1.3 18.7-9.3 32.6-26.6 46.4-14.9 11.7-36.2 17.5-64.1 17.4-49.9-.1-88.6-19.7-113.9-57.8-4-6.1-12.3-21.2-18.5-33.7L472.5 648H173.8l.7 4.7c4.7 32.7 19.6 79.5 35.2 110.7 15.8 31.5 26.9 46.2 57.9 76.7 19.5 19.1 32 29.7 45.4 38.5 17.9 11.7 44.4 25.6 68.5 35.9 38.9 16.6 114.2 33.8 164.5 37.6 17.9 1.3 96.4.7 118.5-1 53.1-4.1 84.9-9 115.5-17.8 92.9-26.7 153-65.2 191.2-122.3 13.5-20.3 27.2-51.6 33.8-77.8 10.4-41.1 10.2-93.6-.6-136.5-11.4-45.3-33.1-82.8-66.6-115.2C893.9 439 842.2 414.9 720 380c-52.3-14.9-66.4-19.1-84-25-47.2-15.8-77.9-31.7-95.5-49.5-9-9.2-13.5-16-17.2-26.7-2.2-6.1-2.7-9.5-3.1-20.6-.4-12.1-.2-13.9 2.2-21.5 3.2-10.5 8.4-18.5 17-26.4 27.9-25.6 76.2-26.4 107.4-1.9 5.6 4.5 8.8 8.1 14.3 16.4 8.6 13 22 39.5 24.9 49 3.5 12 2.1 11.3 28.1 12.2 66.8 2.3 248.6 1.9 269.8-.6l5.3-.7-.6-5.5c-2.1-17.8-20.4-70.9-33.2-96.4-26.3-52.5-71-98.7-125.8-130.2-47.3-27.2-102.3-44-164.1-50.2C643.3.2 582-.3 559.3 1.5zM144 1141v43h896v-86H144v43z"/></svg>