<svg xmlns="http://www.w3.org/2000/svg" width="400" height="94.038"><g fill-rule="evenodd"><path d="M142.667 5.314c-6.567 2.119-6.743 12.165-.25 14.231 6.429 2.046 11.7-2.677 10.252-9.187-.919-4.135-5.564-6.477-10.002-5.044m-88.212 5.674c-1.622.329-1.786.937-1.787 6.616l-.001 4.521-2.459.073c-4.089.119-4.105.139-4.178 5.125-.079 5.389-.075 5.395 3.999 5.486l2.626.059.051 15.691c.051 15.422.058 15.717.412 17.191 1.486 6.182 4.531 8.219 12.525 8.376 8.795.173 9.358-.16 9.356-5.536-.001-5.12-.01-5.131-3.887-5.27-5.227-.189-4.945.833-4.945-17.921V32.833l3.708-.009c5.778-.015 5.542.208 5.542-5.241 0-5.501.204-5.299-5.45-5.388l-3.782-.06-.051-4.859c-.056-5.327-.109-5.618-1.12-6.134-.489-.25-9.442-.381-10.559-.154m48.045 9.858c-11.956.793-19.877 8.124-22.496 20.821-.553 2.677-.553 9.317-.001 12 2.858 13.884 11.404 20.891 25.497 20.905 10.958.011 18.623-4.269 22.961-12.822 4.363-8.602 4.19-20.676-.416-28.974-4.827-8.699-13.462-12.732-25.545-11.93m77.75-.015c-9.423.736-16.048 6.312-17.827 15.002-.933 4.559-.522 4.899 6.01 4.97 6.357.069 6.839-.071 7.231-2.109.54-2.8.96-3.807 2.099-5.023 2.537-2.713 8.369-2.794 10.634-.149.871 1.018 1.105 1.95 1.219 4.851l.101 2.592-3.984.078c-4.22.084-5.357.204-9.265.976-10.854 2.144-16.166 7.802-16.177 17.231-.008 6.772 3.085 11.575 8.97 13.932 5.879 2.354 15.104 1.838 20.01-1.119 1.267-.764 1.21-.767 1.537.099.562 1.488.634 1.505 6.555 1.505 7.133 0 7.223-.061 6.58-4.444-.495-3.37-.612-6.95-.621-18.973-.009-11.31-.057-12.931-.472-15.849-1.402-9.871-9.294-14.61-22.6-13.57m58.333.003c-3.463.224-6.784 1.362-9.416 3.225l-1.084.767-.124-.834c-.3-2.017-.488-2.075-6.709-2.075-4.74 0-5.03.017-5.583.341-1.163.682-1.079-1.196-1.129 25.159-.051 26.461-.112 24.926 1.019 25.545.666.365 10.518.441 11.309.087 1.097-.49 1.04.192 1.156-13.708.145-17.243.585-20.09 3.741-24.191 3.845-4.998 11.937-4.53 14.348.829.897 1.993.937 2.761 1.042 20.029.107 17.613.035 16.544 1.147 17.041.787.351 10.643.278 11.304-.084 1.099-.602 1.064-.057 1.052-16.093-.012-16.44-.129-20.726-.626-22.959-2.121-9.535-9.231-13.871-21.447-13.079m52.084-.002c-14.938.99-24.075 12.782-22.893 29.543.849 12.03 7.282 20.521 17.643 23.285 6.785 1.81 15.4 1.115 20.989-1.694 10.135-5.096 15.076-17.125 12.65-30.799-1.317-7.419-5.112-13.242-10.973-16.836-4.479-2.748-10.502-3.957-17.416-3.499M139.721 21.91c-1.033.449-.962-1.422-1.075 28.09-.066 17.37-.165 27.465-.276 28.148-.326 2.014-1.281 2.653-4.273 2.858-3.389.232-3.478.387-3.4 5.854l.053 3.75.458.6c.681.893 1.453 1.011 5.965.912 9.034-.199 12.857-2.931 14.396-10.289l.436-2.083-.044-28.417c-.049-31.269.038-28.892-1.068-29.416-.741-.352-10.366-.358-11.172-.007m182.362-.012c-1.254.546-1.261 1.803-.031 5.685.584 1.843 1.347 4.285 2.109 6.75.355 1.146.87 2.796 1.145 3.667.276.871.813 2.596 1.194 3.833.381 1.238.981 3.15 1.334 4.25.353 1.1.954 3.013 1.336 4.25.648 2.102 1.666 5.344 3.164 10.084.348 1.1.947 3.012 1.332 4.25 2.656 8.544 2.576 8.339 3.394 8.727.779.37 12.116.412 12.987.048.926-.387 1.119-.831 1.961-4.525.188-.825.782-3.3 1.321-5.5.539-2.2 1.14-4.675 1.335-5.5.195-.825.684-2.85 1.086-4.5.771-3.167 1.638-6.787 2.354-9.834.458-1.946.693-2.675.82-2.548.101.102.503 1.681 1.578 6.215.479 2.017 1.24 5.204 1.693 7.083 1.275 5.3 1.589 6.61 2.058 8.584.67 2.822 1.386 5.821 1.85 7.75.759 3.153.35 3 8.017 2.999 7.434-.001 6.998.165 7.935-3.004.393-1.329 1.447-4.697 3.518-11.245a932.032 932.032 0 001.59-5.084c.381-1.237.758-2.437.838-2.666.08-.229.458-1.43.84-2.667a1211.48 1211.48 0 011.586-5.083c.491-1.559 1.5-4.784 2.244-7.167 2.498-8.007 3.018-9.662 3.377-10.75.432-1.308.492-3.133.119-3.584-.575-.693-1.078-.749-6.678-.749-6.886 0-6.645-.108-7.466 3.333-.186.779-.938 3.854-1.671 6.833l-2.931 11.917c-1.625 6.615-2.299 9.322-2.607 10.48-.287 1.081-.21 1.324-2.066-6.48-.327-1.375-.813-3.4-1.08-4.5-.268-1.1-.672-2.788-.899-3.75-.227-.963-.755-3.175-1.173-4.917-.418-1.741-1.062-4.441-1.432-6-1.474-6.216-1.464-6.19-2.331-6.627-.963-.487-13.264-.362-13.946.141-.697.514-.792.858-3.48 12.57-.115.504-.526 2.266-.912 3.916s-.806 3.479-.934 4.064c-.127.585-.459 2.01-.738 3.167a393.765 393.765 0 00-.734 3.103c-1.208 5.296-1.458 6.126-1.644 5.475-.101-.351-1.791-7.206-3.774-15.309a631.616 631.616 0 00-1.595-6.416 215.56 215.56 0 01-.917-3.667c-1.635-6.739-1.619-6.694-2.583-7.097-.79-.33-11.737-.335-12.493-.005M107.25 31.736c5.851 1.034 9.286 5.65 9.994 13.43 1.081 11.886-4.972 20.05-13.661 18.426-5.454-1.02-8.952-5.612-9.739-12.787-1.324-12.052 4.692-20.608 13.406-19.069m188.166.019c5.761 1.004 9.163 5.648 9.926 13.547 1.168 12.093-5.552 20.414-14.621 18.106-5.023-1.279-8.179-6.08-8.896-13.533-1.097-11.402 5.058-19.609 13.591-18.12M188.788 51.167h.928l-.092 2.708c-.255 7.53-5.071 11.391-11.804 9.463-3.88-1.112-4.736-6.866-1.418-9.535 2.154-1.732 8.736-3.309 11.237-2.691.122.03.639.055 1.149.055" fill="#cc3434"/><path d="M139.573 7.042l-.49.541.542-.489c.505-.456.618-.594.49-.594-.029 0-.273.244-.542.542m13.312 5.375c.001.55.032.755.069.455.037-.3.036-.75-.002-1s-.068-.005-.067.545M19.25 20.829C9.275 22.025 3.596 27.803 3.602 36.75c.005 8.547 4.014 12.578 16.085 16.176 7.881 2.349 10.146 3.858 10.146 6.761 0 4.67-8.422 5.884-12.272 1.768-.981-1.049-1.184-1.427-2.225-4.146-.721-1.882-1.383-2.046-7.836-1.935-5.742.098-6.079.306-5.671 3.501 1.273 9.949 9.188 15.79 21.399 15.792 13.068.002 20.362-5.673 20.348-15.834-.012-8.816-4.375-13.314-16.243-16.746-8.094-2.34-10.05-3.631-10.038-6.623.016-4.221 6.144-5.63 9.572-2.202.898.898 1.834 2.596 2.129 3.861.495 2.128.759 2.21 7.087 2.21 6.723 0 6.9-.077 6.698-2.939-.728-10.323-10.938-17.076-23.531-15.565m84.042-.045c.206.04.543.04.75 0 .206-.039.037-.072-.375-.072-.413 0-.582.033-.375.072m3.833 0c.206.04.544.04.75 0 .206-.039.037-.072-.375-.072-.413 0-.581.033-.375.072m73.835.001c.208.039.508.038.667-.004.159-.042-.01-.074-.377-.072-.367.002-.497.036-.29.076m4.165-.001c.206.04.544.04.75 0 .206-.039.037-.072-.375-.072s-.581.033-.375.072m54.252.002c.254.039.629.038.834-.002.205-.04-.003-.071-.461-.07-.458.002-.626.034-.373.072m3.75-.001c.207.039.507.038.667-.004.159-.042-.011-.074-.377-.072-.367.002-.497.036-.29.076m48.25.001c.254.039.629.038.834-.002.205-.04-.003-.071-.461-.07-.458.002-.626.034-.373.072m3.834 0c.253.039.628.038.833-.002.205-.04-.002-.071-.461-.07-.458.002-.626.034-.372.072m-156.63 28.547c0 14.163.02 19.957.044 12.875.024-7.081.024-18.668 0-25.75-.024-7.081-.044-1.287-.044 12.875m116.586-24.281c0 .029.243.273.541.542l.542.489-.49-.541c-.456-.505-.593-.619-.593-.49m-72.292 6.563c.16.042.423.042.583 0 .161-.042.029-.076-.291-.076-.321 0-.452.034-.292.076m55.336.171c.253.039.628.038.833-.002.205-.04-.002-.071-.461-.07-.458.002-.626.034-.372.072m-5.636 2.422l-.658.709.708-.659c.39-.363.708-.681.708-.708 0-.127-.145 0-.758.658m-134.584.417l-.574.625.625-.574c.581-.535.701-.676.574-.676-.028 0-.309.281-.625.625M247.08 56.833c0 8.021.02 11.302.045 7.292.025-4.01.025-10.573 0-14.583-.025-4.011-.045-.729-.045 7.291m72.644-9.25c0 .734.03 1.013.065.621a8.344 8.344 0 00-.001-1.333c-.036-.342-.065-.021-.064.712m-91.645 12.334c0 6.325.021 8.888.046 5.696.025-3.192.025-8.367 0-11.5-.025-3.133-.046-.521-.046 5.804m-53.694-1.667c.001.55.032.755.069.455a4.447 4.447 0 00-.002-1c-.038-.25-.068-.005-.067.545m-76.392 2.458c.691.736.84.869.84.743 0-.026-.356-.383-.791-.791l-.792-.743.743.791m-26.035 2.576c.207.04.544.04.75 0 .207-.039.038-.072-.375-.072-.412 0-.581.033-.375.072m52.284 4.424l-.659.709.709-.659c.658-.613.785-.758.658-.758-.027 0-.345.319-.708.708m71.133 6.083c1.169.029 3.081.029 4.25 0 1.169-.028.213-.052-2.125-.052s-3.294.024-2.125.052m145.677 0c1.45.028 3.775.028 5.167 0s.206-.05-2.636-.05c-2.841 0-3.98.023-2.531.05m30.406 0c1.398.028 3.686.028 5.084 0 1.398-.028.254-.05-2.542-.05s-3.94.022-2.542.05" fill="#040404"/></g></svg>