<svg xmlns="http://www.w3.org/2000/svg" width="393" height="528"><path fill-rule="evenodd" fill="#cc3535" d="M296.1.26c-7.364 1.67-23.456 13.625-28.036 20.83-2.296 3.6-8.223 11.897-13.173 18.414-30.633 40.335-17.51 90.095 33.68 127.723 20.57 15.12 22.553 17.482 22.647 26.98.218 21.97-8.9 44.92-22.595 56.872-12.87 11.233-14.626 14.424-18.17 33.032-3.848 20.193-2.923 23.603 6.144 22.652 5.272-.553 7.44.576 9.66 5.028 1.68 3.37 5.75 6.372 9.856 7.268 3.847.84 11.73 4.29 17.52 7.665 13.57 7.913 17.165 7.76 28.903-1.226 26.445-20.247 37.47-34.558 41.58-53.97 1.43-6.76 4.052-15.135 5.826-18.61 12.52-24.53-13.897-63.992-69.876-104.38-24.146-17.422-24.157-17.47-9.58-41.852 14.613-24.444 20.525-30.51 37.067-38.02 18.952-8.606 21.276-11.65 16.277-21.315C352.905 26.228 310.773-3.067 296.1.26M66.85 63.442c-14.83 2.97-32.463 39.64-48.03 99.885l-11.392 43.92c-16.813 64.467-3.405 226.71 23.467 283.96 11.35 24.18 33.713 41.163 47.367 35.972 13.727-5.22 14.3-8.5 14.64-85.385.235-51.403 1.3-75.933 3.93-91.33 1.984-11.58 4.326-26.842 5.204-33.918 2.15-17.33 3.538-18.604 18.538-17.056 37.877 3.91 71.75-12.62 86.387-42.16 3.307-6.672 10.27-18.952 15.477-27.29 39.018-62.49 10.915-121.636-57.832-121.715-35.218-.04-35.782-.23-48.26-16.1C100.2 71.666 81.132 60.58 66.85 63.442m116.768 83.76c18.725 7.186-30.058 61.738-55.208 61.738-12.036 0-3.752-46.713 9.172-51.72 17.542-6.796 41.083-11.918 46.036-10.018"/></svg>