<?xml version="1.0" standalone="no"?>
<!DOCTYPE svg PUBLIC "-//W3C//DTD SVG 20010904//EN"
 "http://www.w3.org/TR/2001/REC-SVG-20010904/DTD/svg10.dtd">
<svg version="1.0" xmlns="http://www.w3.org/2000/svg"
 width="1250.000000pt" height="971.000000pt" viewBox="0 0 1250.000000 971.000000"
 preserveAspectRatio="xMidYMid meet">

<g transform="translate(0.000000,971.000000) scale(0.100000,-0.100000)"
fill="#000000" stroke="none">
<path d="M305 9213 c-132 -12 -195 -42 -195 -94 0 -85 93 -202 424 -537 309
-313 550 -525 741 -652 44 -29 102 -72 129 -94 27 -23 80 -63 117 -91 37 -27
206 -178 375 -335 411 -380 393 -365 522 -464 61 -48 112 -91 112 -96 0 -8
-87 13 -120 30 -18 9 -234 61 -390 94 -197 42 -280 51 -450 51 -140 0 -172 -3
-207 -19 -23 -10 -43 -26 -46 -36 -21 -80 289 -675 475 -910 82 -104 276 -316
386 -421 92 -89 268 -240 372 -319 25 -18 106 -82 180 -140 74 -59 157 -121
183 -139 30 -20 45 -37 40 -42 -6 -6 -57 -4 -131 5 -131 15 -198 11 -442 -24
-146 -22 -306 -59 -367 -85 -100 -43 -263 -129 -306 -161 -123 -90 -115 -176
31 -326 81 -85 182 -166 298 -241 116 -75 342 -189 423 -213 42 -12 146 -48
231 -79 85 -32 193 -68 239 -81 46 -13 138 -41 205 -63 66 -22 150 -47 186
-55 36 -8 136 -32 223 -55 87 -22 224 -50 305 -61 81 -11 172 -24 203 -30 173
-32 640 -51 703 -29 22 8 41 19 43 26 8 23 -41 35 -210 49 -566 47 -1078 132
-1445 239 -120 35 -573 186 -627 210 -16 7 -55 23 -85 35 -101 41 -305 148
-376 196 -91 62 -260 201 -305 251 -55 60 -57 78 -18 119 55 57 244 174 280
174 6 0 47 16 91 36 172 78 372 103 817 105 122 1 221 4 221 8 0 4 -19 16 -42
28 -52 25 -293 218 -398 317 -41 39 -113 100 -159 136 -131 101 -243 204 -411
376 -264 270 -381 422 -518 669 -107 195 -202 397 -208 448 l-7 47 31 0 c70 0
480 -62 637 -96 190 -41 257 -59 393 -105 81 -27 156 -53 167 -58 102 -44 155
-51 155 -21 0 40 -29 77 -122 155 -51 43 -133 116 -183 160 -49 45 -126 113
-171 151 -191 165 -327 287 -439 395 -66 64 -164 149 -219 190 -97 73 -118 88
-246 177 -253 176 -553 437 -794 692 -155 163 -311 342 -348 397 -60 88 -52
105 63 129 79 17 96 16 384 -10 415 -37 532 -54 718 -102 126 -32 480 -156
682 -239 77 -32 161 -66 186 -76 25 -9 109 -47 187 -83 77 -36 169 -77 204
-92 35 -14 81 -37 103 -49 22 -13 110 -60 195 -105 85 -45 234 -124 331 -176
96 -51 212 -114 257 -141 44 -26 118 -68 163 -93 308 -167 777 -559 1216
-1016 295 -307 423 -464 582 -714 108 -169 163 -275 221 -418 21 -51 41 -96
45 -100 4 -4 5 22 2 58 -8 103 -89 271 -254 525 -195 300 -282 403 -713 839
-274 277 -509 493 -659 606 -209 157 -701 470 -882 560 -45 23 -100 53 -121
66 -21 13 -44 24 -52 24 -7 0 -19 6 -25 14 -13 15 -512 257 -721 349 -153 67
-521 217 -533 217 -5 0 -23 6 -40 14 -120 55 -539 161 -730 186 -269 34 -593
48 -762 33z"/>
<path d="M12145 8963 c-95 -19 -407 -100 -475 -123 -146 -49 -339 -124 -437
-168 -59 -28 -118 -53 -131 -57 -13 -4 -82 -35 -155 -69 -619 -295 -1382 -783
-1811 -1160 -38 -34 -93 -79 -121 -101 -192 -147 -895 -814 -895 -849 0 -23
43 9 152 112 114 107 195 180 452 408 111 98 357 302 526 436 69 54 150 121
180 148 30 27 107 84 170 126 63 43 158 110 211 149 103 77 197 139 404 266
133 83 762 400 928 468 50 21 196 82 322 136 127 54 244 101 260 105 17 5 59
19 96 33 36 13 97 32 136 41 107 24 352 58 373 51 25 -8 28 -30 15 -90 -34
-148 -162 -309 -435 -543 -218 -188 -477 -429 -755 -702 -143 -140 -293 -285
-334 -320 -79 -70 -316 -319 -381 -402 -42 -52 -51 -92 -24 -102 37 -14 81 -3
182 48 134 67 256 108 397 136 207 41 424 36 550 -11 97 -36 155 -128 141
-222 -8 -53 -60 -165 -115 -246 -59 -87 -368 -390 -496 -486 -341 -256 -1096
-683 -1410 -797 -108 -39 -180 -81 -180 -104 0 -17 8 -19 90 -18 70 0 115 8
203 33 221 63 492 86 707 60 50 -6 105 -17 124 -25 18 -8 40 -14 48 -14 40 0
124 -52 162 -100 70 -89 80 -182 31 -284 -60 -123 -291 -348 -510 -497 -177
-121 -245 -160 -431 -245 -218 -100 -323 -142 -514 -202 -275 -87 -451 -126
-895 -197 -52 -8 -203 -22 -335 -30 -132 -8 -287 -20 -344 -25 -142 -14 -181
-13 -181 3 0 7 23 40 51 72 28 33 95 125 149 205 53 80 123 181 155 225 67 93
172 304 209 420 38 121 66 227 66 255 l0 24 -15 -21 c-9 -12 -27 -57 -41 -99
-29 -91 -121 -307 -175 -416 -117 -233 -265 -429 -563 -743 -102 -107 -167
-165 -276 -245 -172 -126 -262 -208 -290 -264 -14 -29 -37 -51 -75 -75 -30
-18 -55 -37 -55 -42 0 -28 67 17 164 110 50 47 145 124 211 170 66 46 175 128
242 182 149 119 163 127 256 139 41 5 103 14 138 19 35 6 194 17 353 26 159 9
292 18 295 20 4 2 60 11 125 20 258 35 622 117 766 172 36 14 81 31 100 38 19
7 82 32 140 55 58 24 150 57 205 75 106 34 308 131 463 222 148 87 358 258
515 418 119 121 162 184 193 280 l28 84 -18 63 c-22 83 -73 157 -140 208 -44
33 -75 46 -172 72 -108 28 -138 31 -331 37 -116 4 -215 9 -218 13 -3 3 6 13
22 21 15 8 89 46 163 84 416 215 860 525 1112 777 187 186 288 330 347 496 28
78 33 102 28 152 -7 78 -42 146 -92 180 -96 64 -310 106 -482 94 -80 -6 -361
-58 -382 -70 -4 -3 -37 -16 -74 -30 -54 -20 -67 -22 -67 -10 0 33 1069 1084
1250 1229 82 66 269 264 328 348 79 112 172 326 172 394 0 16 -11 30 -32 43
-40 24 -135 25 -243 3z"/>
<path d="M5860 7557 c0 -23 63 -107 81 -107 12 0 52 -40 46 -47 -3 -2 -14 0
-25 6 -31 16 -52 13 -52 -7 0 -25 45 -87 143 -195 43 -49 85 -104 93 -123 8
-19 14 -68 14 -117 0 -78 2 -87 36 -143 78 -126 84 -139 84 -182 0 -104 -65
-180 -285 -332 -108 -75 -192 -147 -182 -156 7 -7 72 29 174 98 40 26 77 48
83 48 5 0 10 3 10 8 0 4 16 16 36 27 50 27 149 137 180 202 38 77 31 140 -32
275 -47 98 -49 107 -49 189 l0 86 -75 88 c-94 111 -110 134 -110 163 0 24 10
28 27 11 7 -7 19 -9 28 -5 15 6 15 9 -4 42 -32 53 -28 74 13 74 55 0 149 -84
206 -185 12 -21 19 -40 16 -42 -3 -3 -25 5 -50 18 -53 26 -63 22 -44 -18 8
-17 33 -38 67 -55 45 -23 68 -28 127 -28 40 0 75 4 78 8 3 5 -17 35 -44 67
-28 33 -50 66 -50 73 0 42 441 -35 553 -95 64 -35 194 -173 234 -249 56 -106
72 -198 108 -619 43 -506 60 -624 121 -816 28 -90 57 -153 82 -182 17 -20 162
-90 170 -83 2 3 -14 16 -37 30 -46 29 -114 111 -138 165 -25 58 -53 154 -53
183 0 19 21 49 75 108 41 45 102 116 134 158 33 43 92 105 130 140 67 59 84
82 62 82 -27 0 -359 -340 -391 -401 -36 -67 -53 24 -75 401 -25 430 -72 700
-151 867 -52 111 -163 220 -277 273 -98 46 -220 76 -342 84 -49 4 -132 11
-184 17 -92 11 -96 12 -150 58 -99 84 -147 108 -231 116 -41 4 -95 16 -119 26
-56 24 -61 24 -61 -4z"/>
<path d="M6563 7133 c-37 -19 -57 -59 -48 -95 14 -55 107 -117 180 -120 46 -2
65 17 65 61 0 41 -15 67 -74 129 -44 46 -69 51 -123 25z m76 -37 c6 -7 8 -26
5 -44 -7 -37 2 -82 17 -82 5 0 18 13 27 30 23 40 32 38 32 -10 0 -39 -1 -40
-35 -40 -42 0 -90 22 -99 46 -4 9 0 27 9 40 8 13 15 35 15 49 0 28 11 32 29
11z"/>
<path d="M3615 3560 c-3 -5 -3 -15 0 -21 4 -5 -15 -34 -43 -62 -39 -42 -50
-62 -56 -99 -6 -38 -14 -53 -44 -77 -42 -33 -39 -50 5 -27 40 20 55 40 73 94
33 102 174 126 234 40 22 -31 20 -101 -3 -146 -26 -51 -60 -80 -173 -151 -88
-55 -157 -92 -403 -213 -101 -50 -332 -150 -448 -193 -104 -39 -631 -312 -767
-397 -111 -70 -185 -123 -295 -213 -44 -36 -155 -118 -247 -182 -203 -140
-258 -188 -258 -228 0 -61 71 -130 186 -181 99 -44 177 -57 334 -57 160 1 138
-5 460 113 174 63 370 127 417 135 57 9 87 -7 78 -43 -4 -15 -36 -72 -72 -127
-219 -333 -215 -460 18 -534 44 -14 142 -14 183 -1 17 5 69 22 116 36 146 47
361 157 550 284 30 20 114 76 185 124 72 48 163 110 203 139 104 74 108 57 41
-153 -40 -125 -89 -420 -89 -535 0 -219 84 -371 246 -451 61 -30 85 -37 132
-37 70 1 185 39 256 85 28 18 63 40 79 47 51 26 162 128 272 251 107 119 233
279 260 330 7 14 23 34 35 45 l21 19 -8 -104 c-13 -169 -9 -268 15 -347 30
-97 76 -161 142 -195 114 -60 238 -24 365 106 75 77 233 263 303 356 49 66
119 204 156 310 35 96 82 341 95 495 26 288 3 575 -45 575 -8 0 -15 -1 -15 -2
-1 -2 -5 -187 -9 -413 -6 -315 -12 -426 -24 -479 -8 -37 -19 -73 -24 -80 -5
-6 -17 -36 -27 -66 -53 -165 -183 -356 -384 -562 -206 -212 -253 -237 -346
-185 -144 82 -164 324 -65 812 17 83 39 177 50 210 26 82 34 131 22 139 -19
12 -69 -64 -106 -162 -55 -142 -156 -345 -222 -442 -122 -182 -332 -411 -474
-515 -154 -112 -299 -156 -413 -124 -22 6 -58 31 -91 62 -80 79 -91 123 -90
357 2 261 19 366 105 629 73 222 82 279 44 273 -23 -4 -84 -49 -250 -182 -206
-166 -462 -336 -576 -384 -19 -8 -61 -29 -94 -48 -155 -88 -329 -138 -477
-138 -49 0 -62 4 -88 28 -56 49 -49 146 19 260 15 26 60 102 100 168 64 108
72 126 69 164 -4 63 -34 82 -127 81 -77 -1 -105 -9 -376 -113 -301 -117 -467
-153 -650 -145 -77 4 -129 12 -174 28 -73 25 -161 92 -176 133 -9 26 -6 32 33
65 23 20 111 78 195 129 83 50 224 141 312 201 417 286 813 507 1195 666 36
15 90 40 120 56 30 15 98 47 150 69 109 47 371 194 460 259 72 53 125 120 141
183 11 41 10 49 -12 94 -19 38 -39 58 -89 91 -36 23 -77 51 -92 63 -29 22 -44
25 -53 10z"/>
<path d="M6295 3187 c-54 -56 -90 -104 -112 -149 -38 -76 -40 -91 -15 -86 16
3 47 52 87 138 19 42 54 80 72 80 15 0 18 -16 4 -24 -5 -3 -19 -25 -31 -48
-12 -24 -34 -59 -48 -78 -15 -19 -33 -47 -40 -62 -6 -16 -17 -39 -24 -53 -16
-34 -8 -38 42 -20 45 16 110 20 110 8 0 -13 -40 -75 -76 -119 -20 -24 -34 -52
-34 -68 0 -25 1 -26 65 -26 36 0 65 -4 65 -8 0 -18 -158 -75 -305 -111 -22 -5
-58 -16 -80 -25 l-40 -15 60 0 c66 -1 187 25 299 64 40 14 76 25 80 25 3 0 -9
-16 -29 -35 -24 -25 -35 -45 -35 -66 0 -25 3 -28 18 -20 26 14 71 61 96 100
25 41 118 107 166 118 57 14 49 36 -27 72 -37 18 -83 40 -100 49 -58 27 -42
42 46 42 44 0 82 4 86 9 6 10 -37 26 -97 36 -25 5 -48 20 -73 47 -30 32 -42
38 -61 34 -14 -4 -34 -2 -45 5 -19 10 -19 12 -5 28 9 10 16 25 16 34 0 9 5 19
11 23 6 3 20 25 30 48 11 22 25 49 31 58 13 18 1 69 -17 74 -5 2 -46 -34 -90
-79z m120 -376 c8 -14 -37 -43 -48 -32 -15 15 0 41 22 41 11 0 22 -4 26 -9z
m3 -119 c2 -7 -6 -12 -17 -12 -21 0 -27 11 -14 24 9 9 26 2 31 -12z m6 -63
c-7 -11 -34 -12 -34 -1 0 14 11 21 26 15 8 -3 11 -9 8 -14z"/>
<path d="M5214 3129 c-78 -33 -135 -82 -117 -100 8 -8 33 1 90 32 129 70 152
34 51 -82 -35 -39 -78 -90 -95 -113 -31 -40 -42 -79 -24 -90 4 -3 41 24 80 60
40 36 78 63 84 61 7 -2 11 -16 9 -32 -3 -27 21 -65 41 -65 5 0 25 14 44 31 29
24 41 29 65 24 26 -6 34 -2 65 34 19 23 39 41 44 41 14 0 11 -44 -7 -79 -24
-48 -41 -168 -26 -183 18 -18 33 2 43 57 13 67 37 112 67 124 26 11 27 15 30
91 3 76 2 80 -21 91 -18 8 -32 7 -62 -5 -20 -9 -43 -16 -51 -16 -7 0 -42 25
-76 56 -75 67 -116 94 -143 94 -11 -1 -52 -14 -91 -31z m256 -164 c0 -16 -35
-21 -44 -6 -8 12 4 21 26 21 10 0 18 -7 18 -15z"/>
</g>
</svg>
